<svg xmlns="http://www.w3.org/2000/svg" viewBox="0 0 512 512" width="512" height="512">
  <defs>
    <linearGradient id="bg2" x1="0%" y1="0%" x2="100%" y2="100%">
      <stop offset="0%" style="stop-color:#0a0e1a"/>
      <stop offset="100%" style="stop-color:#141b2d"/>
    </linearGradient>
    <linearGradient id="wave2" x1="0%" y1="0%" x2="100%" y2="0%">
      <stop offset="0%" style="stop-color:#00d4ff"/>
      <stop offset="100%" style="stop-color:#7c3aed"/>
    </linearGradient>
  </defs>
  <!-- Full bleed background for maskable -->
  <rect width="512" height="512" fill="url(#bg2)"/>
  <!-- Padded content (safe zone = inner 80%) -->
  <rect x="236" y="100" width="40" height="100" rx="20" fill="url(#wave2)" opacity="0.9"/>
  <path d="M 186 236 Q 186 300 256 300 Q 326 300 326 236" stroke="url(#wave2)" stroke-width="10" fill="none" stroke-linecap="round"/>
  <line x1="256" y1="300" x2="256" y2="340" stroke="url(#wave2)" stroke-width="10" stroke-linecap="round"/>
  <line x1="220" y1="340" x2="292" y2="340" stroke="url(#wave2)" stroke-width="10" stroke-linecap="round"/>
  <!-- Mini waveform -->
  <rect x="148" y="370" width="10" height="30" rx="5" fill="#00d4ff" opacity="0.6"/>
  <rect x="164" y="362" width="10" height="38" rx="5" fill="#00d4ff" opacity="0.8"/>
  <rect x="180" y="354" width="10" height="46" rx="5" fill="#00d4ff" opacity="0.9"/>
  <rect x="196" y="364" width="10" height="36" rx="5" fill="#00d4ff" opacity="0.75"/>
  <rect x="212" y="372" width="10" height="28" rx="5" fill="#00d4ff" opacity="0.6"/>
  <rect x="290" y="372" width="10" height="28" rx="5" fill="#7c3aed" opacity="0.6"/>
  <rect x="306" y="364" width="10" height="36" rx="5" fill="#7c3aed" opacity="0.75"/>
  <rect x="322" y="354" width="10" height="46" rx="5" fill="#7c3aed" opacity="0.9"/>
  <rect x="338" y="362" width="10" height="38" rx="5" fill="#7c3aed" opacity="0.8"/>
  <rect x="354" y="370" width="10" height="30" rx="5" fill="#7c3aed" opacity="0.6"/>
</svg>
